<?xml version="1.0" encoding="UTF-8" standalone="no"?><!DOCTYPE svg PUBLIC "-//W3C//DTD SVG 1.1//EN" "http://www.w3.org/Graphics/SVG/1.1/DTD/svg11.dtd"><svg width="100%" height="100%" viewBox="0 0 2400 2400" version="1.1" xmlns="http://www.w3.org/2000/svg" xmlns:xlink="http://www.w3.org/1999/xlink" xml:space="preserve" xmlns:serif="http://www.serif.com/" style="fill-rule:evenodd;clip-rule:evenodd;stroke-linejoin:round;stroke-miterlimit:2;"><path d="M1012.75,980.675l0,-151.733c0,-12.779 4.796,-22.366 15.971,-28.747l305.07,-175.689c41.525,-23.957 91.04,-35.131 142.142,-35.131c191.657,0 313.052,148.54 313.052,306.654c0,11.178 0,23.957 -1.601,36.735l-316.244,-185.276c-19.164,-11.174 -38.337,-11.174 -57.5,0l-400.89,233.187Zm712.34,590.959l0,-362.567c0,-22.365 -9.59,-38.336 -28.75,-49.514l-400.89,-233.186l130.969,-75.073c11.177,-6.381 20.764,-6.381 31.942,0l305.066,175.69c87.851,51.115 146.939,159.718 146.939,265.125c0,121.381 -71.866,233.189 -185.276,279.512l0,0.013Zm-806.573,-319.433l-130.968,-76.66c-11.174,-6.381 -15.971,-15.972 -15.971,-28.75l0,-351.376c0,-170.892 130.968,-300.273 308.259,-300.273c67.09,0 129.367,22.366 182.087,62.294l-314.643,182.084c-19.16,11.174 -28.747,27.145 -28.747,49.514l0,463.18l-0.017,-0.013Zm281.905,162.907l-187.672,-105.41l0,-223.596l187.672,-105.411l187.66,105.411l0,223.596l-187.66,105.41Zm120.586,485.549c-67.087,0 -129.363,-22.366 -182.084,-62.29l314.64,-182.087c19.164,-11.175 28.75,-27.146 28.75,-49.515l0,-463.18l132.573,76.66c11.174,6.381 15.971,15.968 15.971,28.75l0,351.376c0,170.892 -132.573,300.273 -309.85,300.273l0,0.013Zm-378.534,-356.169l-305.07,-175.686c-87.851,-51.119 -146.939,-159.718 -146.939,-265.128c0,-122.983 73.471,-233.186 186.864,-279.509l0,364.155c0,22.365 9.59,38.336 28.75,49.514l399.302,231.582l-130.968,75.072c-11.174,6.381 -20.765,6.381 -31.939,0Zm-17.559,261.936c-180.483,0 -313.052,-135.761 -313.052,-303.465c0,-12.779 1.601,-25.558 3.189,-38.337l314.643,182.084c19.16,11.178 38.337,11.178 57.497,0l400.89,-231.581l0,151.732c0,12.779 -4.794,22.366 -15.971,28.747l-305.067,175.689c-41.529,23.957 -91.043,35.131 -142.146,35.131l0.017,0Zm396.093,190.056c193.262,0 354.568,-137.352 391.317,-319.436c178.881,-46.322 293.878,-214.026 293.878,-384.919c0,-111.808 -47.91,-220.407 -134.16,-298.671c7.986,-33.544 12.779,-67.087 12.779,-100.614c0,-228.393 -185.276,-399.302 -399.302,-399.302c-43.114,0 -84.643,6.381 -126.172,20.764c-71.883,-70.279 -170.909,-114.997 -279.511,-114.997c-193.259,0 -354.565,137.35 -391.314,319.433c-178.881,46.323 -293.878,214.026 -293.878,384.919c0,111.808 47.91,220.407 134.16,298.672c-7.985,33.543 -12.779,67.087 -12.779,100.617c0,228.393 185.276,399.299 399.299,399.299c43.117,0 84.646,-6.381 126.175,-20.765c71.867,70.279 170.892,115 279.508,115Z" style="fill-rule:nonzero;"/></svg>